<svg xmlns="http://www.w3.org/2000/svg" viewBox="0 0 54.25 15.08"><defs><style>.a{fill:none;}</style></defs><path class="a" d="M41,5.7a1.92,1.92,0,0,0-1.9,1.93A1.9,1.9,0,1,0,41,5.7Z"/><path class="a" d="M14.81,5.7a1.86,1.86,0,0,0-1.85,2,1.85,1.85,0,1,0,3.7,0A1.86,1.86,0,0,0,14.81,5.7Z"/><path class="a" d="M23.81,5.7a1.86,1.86,0,0,0-1.84,2,1.85,1.85,0,1,0,3.69,0A1.86,1.86,0,0,0,23.81,5.7Z"/><path class="a" d="M50.49,5.56A1.7,1.7,0,0,0,48.71,7h3.48A1.57,1.57,0,0,0,50.49,5.56Z"/><path d="M5.56,2.37a3.62,3.62,0,0,1,.82.09l0,3.62L9.89,2.6H9.84l.05,0A5.37,5.37,0,0,0,5.48.31,5.54,5.54,0,0,0,0,5.89a5.54,5.54,0,0,0,5.48,5.6A5.37,5.37,0,0,0,9.89,9.25L8.23,8A3.18,3.18,0,0,1,5.55,9.43,3.41,3.41,0,0,1,2.18,5.89,3.4,3.4,0,0,1,5.56,2.37Z"/><path d="M14.81,3.79a3.85,3.85,0,1,0,0,7.7,3.85,3.85,0,1,0,0-7.7Zm0,5.79A1.85,1.85,0,0,1,13,7.65a1.85,1.85,0,1,1,3.7,0A1.85,1.85,0,0,1,14.81,9.58Z"/><path d="M23.81,3.79a3.85,3.85,0,1,0,3.94,3.86A3.83,3.83,0,0,0,23.81,3.79Zm0,5.79A1.85,1.85,0,0,1,22,7.65a1.85,1.85,0,1,1,3.69,0A1.85,1.85,0,0,1,23.81,9.58Z"/><rect x="29.32" width="2.05" height="11.3"/><path d="M34.39.24a1.27,1.27,0,0,0-1.31,1.22A1.28,1.28,0,0,0,34.39,2.7a1.27,1.27,0,0,0,1.3-1.24A1.25,1.25,0,0,0,34.39.24Z"/><rect x="33.37" y="3.98" width="2.05" height="7.32"/><path d="M42.92,4.86a3,3,0,0,0-2.35-1.07A3.64,3.64,0,0,0,37,7.63a3.66,3.66,0,0,0,3.59,3.86,3,3,0,0,0,2.35-1.08v.2c0,1.9-.83,2.63-2.15,2.63a2.09,2.09,0,0,1-1.85-1.14l-1.71.73a3.88,3.88,0,0,0,3.56,2.25c2.59,0,4.2-1.49,4.2-4.69V4h-2ZM41,9.58a1.94,1.94,0,0,1-1.9-1.95,1.9,1.9,0,1,1,1.9,2Z"/><path d="M54.25,7.52a3.65,3.65,0,0,0-3.8-3.73,3.76,3.76,0,0,0-3.89,3.86,3.73,3.73,0,0,0,3.9,3.84A4.08,4.08,0,0,0,53.71,10l-1.19-1.2a2.66,2.66,0,0,1-1.93.86,1.79,1.79,0,0,1-1.88-1.36h5.5C54.24,8,54.25,7.73,54.25,7.52ZM48.71,7a1.7,1.7,0,0,1,1.78-1.41A1.57,1.57,0,0,1,52.19,7Z"/></svg>