<svg xmlns="http://www.w3.org/2000/svg" viewBox="0 0 63.46 17.48"><defs><style>.a{fill:none;}</style></defs><path class="a" d="M5,1.47a1.55,1.55,0,0,0-.59-.26,2.89,2.89,0,0,0-.56-.06,1.75,1.75,0,0,0-.49.07.52.52,0,0,0-.3.3,1.54,1.54,0,0,0-.11.69v3l.29,0H3.5A2.61,2.61,0,0,0,4.7,5a1.51,1.51,0,0,0,.68-.73A2.86,2.86,0,0,0,5.6,3.14a2.61,2.61,0,0,0-.18-1.07A1.47,1.47,0,0,0,5,1.47Z"/><path class="a" d="M23.05,14.6h-.54v.85h.54a.5.5,0,0,0,.35-.12.39.39,0,0,0,.12-.3.41.41,0,0,0-.12-.31A.48.48,0,0,0,23.05,14.6Z"/><polygon class="a" points="27.09 16.19 27.97 16.19 27.54 14.97 27.09 16.19"/><path class="a" d="M33.09,15.71a1.13,1.13,0,0,0-.13-.56.84.84,0,0,0-.35-.35,1.08,1.08,0,0,0-.54-.13h-.6v2.08h.6a1.13,1.13,0,0,0,.54-.12,1,1,0,0,0,.36-.36A1.25,1.25,0,0,0,33.09,15.71Z"/><path class="a" d="M35.59,4.2c-.11-.32-.21-.65-.3-1s-.16-.62-.21-.87h0c0,.15-.09.38-.16.69a8.51,8.51,0,0,1-.34,1.08L34,5.88h2.24Z"/><path class="a" d="M58.82,3.23a8.58,8.58,0,0,1-.2-.87h0c0,.15-.09.38-.16.69a10.18,10.18,0,0,1-.33,1.08L57.5,5.88h2.25L59.13,4.2C59,3.88,58.91,3.55,58.82,3.23Z"/><path d="M5.87.52A6.08,6.08,0,0,0,3.81.21l-1.9,0H0v1l.47,0,.54,0c0,.12,0,.29,0,.51s0,.46,0,.7V7.58a1.89,1.89,0,0,1-.11.78.57.57,0,0,1-.32.31A2.28,2.28,0,0,1,0,8.75v.88H4v-1H3.22l-.38,0a2.89,2.89,0,0,0,0-.51c0-.22,0-.46,0-.71V6.24h1a5.17,5.17,0,0,0,1.66-.3,3.41,3.41,0,0,0,1.18-.69,2.89,2.89,0,0,0,.71-.94,2.62,2.62,0,0,0,.26-1,2.89,2.89,0,0,0-.45-1.74A2.81,2.81,0,0,0,5.87.52ZM5.38,4.3A1.51,1.51,0,0,1,4.7,5a2.61,2.61,0,0,1-1.2.24H3.19l-.29,0v-3A1.54,1.54,0,0,1,3,1.52a.52.52,0,0,1,.3-.3,1.75,1.75,0,0,1,.49-.07,2.89,2.89,0,0,1,.56.06A1.55,1.55,0,0,1,5,1.47a1.47,1.47,0,0,1,.47.6A2.61,2.61,0,0,1,5.6,3.14,2.86,2.86,0,0,1,5.38,4.3Z"/><path d="M17.38,6.68h-.87a2.32,2.32,0,0,1-.24,1.15,1.43,1.43,0,0,1-.62.6,1.79,1.79,0,0,1-.78.19h-1.8a3,3,0,0,0,0-.5c0-.22,0-.44,0-.69V5.23h.35a2.77,2.77,0,0,1,.66,0,.8.8,0,0,1,.48.32,1.5,1.5,0,0,1,.17.81h.89V3.14h-1l.06,1.17H13.13v-2a1.93,1.93,0,0,1,.11-.77.56.56,0,0,1,.3-.32A1.45,1.45,0,0,1,14,1.13l.48,0a2,2,0,0,1,.74.12,1.21,1.21,0,0,1,.63.5,2,2,0,0,1,.25,1.11H17L16.94.24H10.23v1l.47,0,.54,0c0,.12,0,.29,0,.51s0,.46,0,.7V7.58a2.08,2.08,0,0,1-.11.78.6.6,0,0,1-.32.31,2.28,2.28,0,0,1-.52.08v.88h7.09Z"/><path d="M21.54,8.46a4.46,4.46,0,0,0,1.46,1,4.57,4.57,0,0,0,1.88.37,5.4,5.4,0,0,0,1.24-.16,4.58,4.58,0,0,0,1.41-.63A4.92,4.92,0,0,0,28.91,7.7l-.64-.59a4.05,4.05,0,0,1-1.39,1.22,3.62,3.62,0,0,1-1.68.43,2.35,2.35,0,0,1-1.53-.51,3.13,3.13,0,0,1-1-1.4,5.88,5.88,0,0,1-.33-2,5.55,5.55,0,0,1,.17-1.41,4,4,0,0,1,.51-1.22,2.82,2.82,0,0,1,.86-.86A2.34,2.34,0,0,1,25.14,1a2.08,2.08,0,0,1,1.51.58,3,3,0,0,1,.75,1.68h.87V.12h-1l.05.56A5.47,5.47,0,0,0,26.12.19,4.53,4.53,0,0,0,25,0a4.58,4.58,0,0,0-2,.43,4.24,4.24,0,0,0-1.47,1.17,5.05,5.05,0,0,0-.88,1.63,5.68,5.68,0,0,0-.3,1.81,5.18,5.18,0,0,0,.33,1.87A4.47,4.47,0,0,0,21.54,8.46Z"/><path d="M33.94,8.56h-.43a3.84,3.84,0,0,0-.52,0q.1-.22.24-.57c.08-.23.15-.4.19-.52l.22-.63,2.91,0,.27.74a1.84,1.84,0,0,1,.14.6.56.56,0,0,1-.12.42.67.67,0,0,1-.52.16v.88h3.61v-1h-.34l-.44,0A3.53,3.53,0,0,0,39,7.92l-.21-.61L35.92,0H35L32.36,7.18q-.15.41-.3.75a1.67,1.67,0,0,1-.38.56.85.85,0,0,1-.61.22v.92h2.87Zm.63-4.43a8.51,8.51,0,0,0,.34-1.08c.07-.31.13-.54.16-.69h0q.08.38.21.87c.09.32.19.65.3,1l.62,1.68H34Z"/><path d="M52.19.24H49.13v1l.47,0,.53,0c0,.12,0,.29,0,.51s0,.46,0,.7V6.7h0c-.11-.16-.24-.33-.38-.54s-.34-.45-.56-.74L45,.24h-2.1v1l.47,0,.55,0a4.8,4.8,0,0,0,0,.51c0,.23,0,.46,0,.7l0,5.14a2.08,2.08,0,0,1-.11.78.58.58,0,0,1-.33.31,2.18,2.18,0,0,1-.51.08v.88H46v-1h-.47a4,4,0,0,0-.54,0,4.37,4.37,0,0,0,0-.51c0-.22,0-.45,0-.7l0-4.16h0c.13.18.25.36.38.53l.36.48,4.29,5.49h1.14V2.29a1.86,1.86,0,0,1,.12-.78.49.49,0,0,1,.33-.3,1.82,1.82,0,0,1,.51-.08Z"/><path d="M59.85,8.75v.88h3.61v-1h-.34l-.44,0a3,3,0,0,0-.16-.72l-.21-.61L59.45,0h-.94L55.89,7.18q-.15.41-.3.75a1.67,1.67,0,0,1-.38.56.81.81,0,0,1-.6.22v.92h2.87V8.56H57a3.94,3.94,0,0,0-.52,0A5.79,5.79,0,0,0,56.76,8c.08-.23.15-.4.19-.52l.22-.63,2.91,0,.27.74a1.88,1.88,0,0,1,.15.6.6.6,0,0,1-.13.42A.66.66,0,0,1,59.85,8.75ZM57.5,5.88l.61-1.75a10.18,10.18,0,0,0,.33-1.08c.07-.31.13-.54.16-.69h0a8.58,8.58,0,0,0,.2.87c.09.32.19.65.31,1l.62,1.68Z"/><polygon points="17.33 14.67 18.4 14.67 18.4 17.42 19.17 17.42 19.17 14.67 20.24 14.67 20.24 14 17.33 14 17.33 14.67"/><path d="M24.14,15.54a.93.93,0,0,0,.14-.53.9.9,0,0,0-.14-.52,1,1,0,0,0-.4-.36,1.4,1.4,0,0,0-.6-.13h-1.4v3.42h.77V16h.08l1,1.4h.91L23.42,16a1,1,0,0,0,.31-.1A.94.94,0,0,0,24.14,15.54Zm-.74-.21a.5.5,0,0,1-.35.12h-.54V14.6h.54a.48.48,0,0,1,.35.12.41.41,0,0,1,.12.31A.39.39,0,0,1,23.4,15.33Z"/><path d="M27.19,14l-1.35,3.42h.79l.23-.61H28.2l.22.61h.81L27.89,14Zm-.1,2.19L27.54,15,28,16.19Z"/><path d="M33.37,16.94a1.6,1.6,0,0,0,.38-.54,1.9,1.9,0,0,0,0-1.38,1.6,1.6,0,0,0-.38-.54A1.94,1.94,0,0,0,32.08,14H30.7v3.42h1.39a2.08,2.08,0,0,0,.71-.12A1.85,1.85,0,0,0,33.37,16.94Zm-1.3-.19h-.6V14.67h.6a1.08,1.08,0,0,1,.54.13.84.84,0,0,1,.35.35,1.13,1.13,0,0,1,.13.56,1.25,1.25,0,0,1-.12.56,1,1,0,0,1-.36.36A1.13,1.13,0,0,1,32.07,16.75Z"/><rect x="35.48" y="14" width="0.77" height="3.42"/><polygon points="40.2 16.08 38.59 14 38.05 14 38.05 17.42 38.81 17.42 38.81 15.38 40.41 17.42 40.97 17.42 40.97 14 40.2 14 40.2 16.08"/><path d="M43.1,17a2,2,0,0,0,.57.38,2,2,0,0,0,1.61-.07,1.57,1.57,0,0,0,.61-.64,2.3,2.3,0,0,0,.22-1v-.11h-1.8v.64l1,0a1.46,1.46,0,0,1-.07.19.78.78,0,0,1-.32.33,1.17,1.17,0,0,1-1,0,1.09,1.09,0,0,1-.36-.38,1.16,1.16,0,0,1-.13-.56,1.25,1.25,0,0,1,.13-.56,1,1,0,0,1,.37-.37,1.09,1.09,0,0,1,.54-.14,1.15,1.15,0,0,1,.5.11,1.08,1.08,0,0,1,.39.32l.52-.52a1.67,1.67,0,0,0-.6-.44,1.91,1.91,0,0,0-.8-.16,1.79,1.79,0,0,0-1.3.51,1.67,1.67,0,0,0-.53,1.25,1.73,1.73,0,0,0,.13.69A2,2,0,0,0,43.1,17Z"/></svg>