<svg xmlns="http://www.w3.org/2000/svg" viewBox="0 0 48.21 15.79"><defs><style>.a{fill:none;}</style></defs><path class="a" d="M30.33,10.55a1.31,1.31,0,0,0-.87.3,1.37,1.37,0,0,0-.44.85h2.57a1.06,1.06,0,0,0-.36-.84A1.31,1.31,0,0,0,30.33,10.55Z"/><path class="a" d="M37.25,1.68a1.69,1.69,0,0,0-.41,1.19,1.7,1.7,0,0,0,.41,1.19,1.55,1.55,0,0,0,2.16,0,1.71,1.71,0,0,0,.4-1.19,1.71,1.71,0,0,0-.4-1.19,1.55,1.55,0,0,0-2.16,0Z"/><path class="a" d="M31.44,3.35h-1V4.59h1A.82.82,0,0,0,32,4.44.56.56,0,0,0,32.18,4a.58.58,0,0,0-.2-.46A.81.81,0,0,0,31.44,3.35Z"/><path class="a" d="M30.45,1.18V2.35h.9a.78.78,0,0,0,.51-.15A.51.51,0,0,0,32,1.77a.54.54,0,0,0-.18-.44.78.78,0,0,0-.51-.15Z"/><path class="a" d="M22.91,10.55A1.26,1.26,0,0,0,21.6,11.7h2.57a1.06,1.06,0,0,0-.36-.84A1.31,1.31,0,0,0,22.91,10.55Z"/><path d="M8.93,5.75a1.89,1.89,0,0,0,1.35-.48,1.81,1.81,0,0,0,.5-1.37V.08H9.41V3.9a.71.71,0,0,1-.14.47.5.5,0,0,1-.38.16.52.52,0,0,1-.42-.18.88.88,0,0,1-.14-.53H7A1.91,1.91,0,0,0,7.5,5.25,2,2,0,0,0,8.93,5.75Z"/><path d="M16.74,5.49a2,2,0,0,0,.86-.79,2.39,2.39,0,0,0,.32-1.27V.08H16.55V3.44a1.09,1.09,0,0,1-.25.78,1,1,0,0,1-.74.27,1,1,0,0,1-.73-.27,1.14,1.14,0,0,1-.25-.78V.08H13.22V3.43a2.55,2.55,0,0,0,.3,1.28,1.89,1.89,0,0,0,.83.78,2.54,2.54,0,0,0,1.19.26A2.78,2.78,0,0,0,16.74,5.49Z"/><polygon points="23.5 3.97 21.92 0.08 20.31 0.08 20.31 5.7 21.67 5.7 21.67 2.32 22.94 5.7 24.04 5.7 25.3 2.33 25.3 5.7 26.67 5.7 26.67 0.08 25.06 0.08 23.5 3.97"/><path d="M29.08.08V5.7H31.7a2,2,0,0,0,1.37-.42,1.35,1.35,0,0,0,.49-1.11,1.4,1.4,0,0,0-.29-.87,1.33,1.33,0,0,0-.79-.48,1.41,1.41,0,0,0,.7-.46,1.3,1.3,0,0,0,.26-.82A1.32,1.32,0,0,0,33,.47,2.08,2.08,0,0,0,31.61.08ZM32,4.44a.82.82,0,0,1-.53.15h-1V3.35h1a.81.81,0,0,1,.54.17.58.58,0,0,1,.2.46A.56.56,0,0,1,32,4.44ZM32,1.77a.51.51,0,0,1-.18.43.78.78,0,0,1-.51.15h-.9V1.18h.9a.78.78,0,0,1,.51.15A.54.54,0,0,1,32,1.77Z"/><path d="M36.88.37a2.78,2.78,0,0,0-1.05,1,2.85,2.85,0,0,0-.39,1.48,2.88,2.88,0,0,0,.39,1.49,2.71,2.71,0,0,0,1.05,1,3,3,0,0,0,2.9,0,2.68,2.68,0,0,0,1-1,2.87,2.87,0,0,0,.38-1.49,2.84,2.84,0,0,0-.38-1.48,2.68,2.68,0,0,0-1-1,3,3,0,0,0-2.9,0Zm2.93,2.5a1.71,1.71,0,0,1-.4,1.19,1.55,1.55,0,0,1-2.16,0,1.7,1.7,0,0,1-.41-1.19,1.69,1.69,0,0,1,.41-1.19,1.55,1.55,0,0,1,2.16,0A1.71,1.71,0,0,1,39.81,2.87Z"/><path d="M5.11,11.22a12.2,12.2,0,0,0-1.33-.53,6.28,6.28,0,0,1-1.2-.49.69.69,0,0,1-.38-.64A.74.74,0,0,1,2.42,9,.92.92,0,0,1,3,8.8,1,1,0,0,1,3.73,9a.83.83,0,0,1,.3.64H6.25a2.37,2.37,0,0,0-.91-1.85A3.51,3.51,0,0,0,3.1,7.15a3.44,3.44,0,0,0-2.22.67A2.21,2.21,0,0,0,0,9.66,2,2,0,0,0,.4,10.94a2.42,2.42,0,0,0,.88.75,9.67,9.67,0,0,0,1.34.5,8.36,8.36,0,0,1,.87.3,1.69,1.69,0,0,1,.51.34.68.68,0,0,1,.21.51.73.73,0,0,1-.26.59,1.14,1.14,0,0,1-.72.21,1,1,0,0,1-.72-.25,1.06,1.06,0,0,1-.33-.71H0a2.45,2.45,0,0,0,.46,1.41,2.7,2.7,0,0,0,1.17.89,4.35,4.35,0,0,0,1.66.3,3.64,3.64,0,0,0,1.64-.35A2.49,2.49,0,0,0,6,14.5a2.4,2.4,0,0,0,.37-1.31A2,2,0,0,0,6,12,2.55,2.55,0,0,0,5.11,11.22Z"/><path d="M10.54,10.66a1,1,0,0,1,1.06.76h2.19a3.15,3.15,0,0,0-1.11-1.86,3.34,3.34,0,0,0-2.11-.66,3.53,3.53,0,0,0-1.74.42,2.93,2.93,0,0,0-1.19,1.2,3.7,3.7,0,0,0-.43,1.83,3.68,3.68,0,0,0,.43,1.82,2.93,2.93,0,0,0,1.19,1.2,3.53,3.53,0,0,0,1.74.42,3.28,3.28,0,0,0,2.1-.67,3.15,3.15,0,0,0,1.12-1.85H11.6a1,1,0,0,1-1.06.77,1.07,1.07,0,0,1-.9-.44,2,2,0,0,1-.34-1.25,2,2,0,0,1,.34-1.26A1.06,1.06,0,0,1,10.54,10.66Z"/><path d="M16.89,10.12V9H14.83v6.7h2.06V12.59a1.46,1.46,0,0,1,.38-1.16,1.73,1.73,0,0,1,1.15-.33H19V8.93a2.25,2.25,0,0,0-1.2.32A2.67,2.67,0,0,0,16.89,10.12Z"/><path d="M24.66,9.31a3.88,3.88,0,0,0-3.49,0A2.93,2.93,0,0,0,20,10.52a3.7,3.7,0,0,0-.43,1.83A3.68,3.68,0,0,0,20,14.17a3,3,0,0,0,1.2,1.2,3.59,3.59,0,0,0,1.75.42,3.53,3.53,0,0,0,1.48-.3,3,3,0,0,0,1.7-2H23.93a1.08,1.08,0,0,1-1.07.64,1.24,1.24,0,0,1-.87-.33,1.39,1.39,0,0,1-.4-.95h4.64a4.22,4.22,0,0,0,0-.6,3.45,3.45,0,0,0-.43-1.76A2.83,2.83,0,0,0,24.66,9.31ZM21.6,11.7a1.36,1.36,0,0,1,2.21-.84,1.06,1.06,0,0,1,.36.84Z"/><path d="M32.08,9.31a3.88,3.88,0,0,0-3.49,0,2.93,2.93,0,0,0-1.19,1.2A3.7,3.7,0,0,0,27,12.35a3.79,3.79,0,0,0,.43,1.82,3,3,0,0,0,1.2,1.2,3.63,3.63,0,0,0,1.76.42,3.51,3.51,0,0,0,1.47-.3,2.94,2.94,0,0,0,1.1-.83,3.09,3.09,0,0,0,.61-1.18H31.35a1.07,1.07,0,0,1-1.07.64,1.24,1.24,0,0,1-.87-.33,1.39,1.39,0,0,1-.4-.95h4.65q0-.31,0-.6a3.55,3.55,0,0,0-.42-1.76A2.91,2.91,0,0,0,32.08,9.31ZM29,11.7a1.37,1.37,0,0,1,.44-.85,1.44,1.44,0,0,1,1.77,0,1.06,1.06,0,0,1,.36.84Z"/><path d="M38.85,8.93a2.6,2.6,0,0,0-1.19.26,2.14,2.14,0,0,0-.84.7V9h-2v6.7h2V12.06a1.45,1.45,0,0,1,.35-1,1.23,1.23,0,0,1,.94-.38A1.21,1.21,0,0,1,39,11a1.41,1.41,0,0,1,.35,1V15.7h2V11.78a3,3,0,0,0-.7-2.09A2.42,2.42,0,0,0,38.85,8.93Z"/><path d="M47,12a12.25,12.25,0,0,0-1.22-.38,4.9,4.9,0,0,1-1-.28.48.48,0,0,1-.31-.44.43.43,0,0,1,.2-.37.86.86,0,0,1,.55-.14,1.12,1.12,0,0,1,.68.2.82.82,0,0,1,.3.55h1.9a2.39,2.39,0,0,0-.84-1.65,2.9,2.9,0,0,0-2-.63,3.64,3.64,0,0,0-1.47.28,2.1,2.1,0,0,0-.94.75A1.88,1.88,0,0,0,42.63,11,1.62,1.62,0,0,0,43,12.07a2.09,2.09,0,0,0,.83.58A8,8,0,0,0,45,13a6.08,6.08,0,0,1,1,.3.46.46,0,0,1,.3.43.46.46,0,0,1-.21.39,1,1,0,0,1-.59.15,1.11,1.11,0,0,1-.71-.22.76.76,0,0,1-.32-.56h-2a2.19,2.19,0,0,0,.44,1.17,2.73,2.73,0,0,0,1.08.82,3.88,3.88,0,0,0,1.56.3,3.78,3.78,0,0,0,1.44-.26,2.19,2.19,0,0,0,.94-.73,1.77,1.77,0,0,0,.33-1.05,1.7,1.7,0,0,0-.36-1.11A2.26,2.26,0,0,0,47,12Z"/></svg>