<svg xmlns="http://www.w3.org/2000/svg" viewBox="0 0 71.84 12.3"><defs><style>.a{fill:none;}</style></defs><path class="a" d="M59.42,4.71a1.29,1.29,0,0,0-.72.19,1.26,1.26,0,0,0-.45.54,1.93,1.93,0,0,0-.17.84,1.75,1.75,0,0,0,.36,1.16,1.35,1.35,0,0,0,1.67.23,1.3,1.3,0,0,0,.47-.54,2,2,0,0,0,.17-.85,1.71,1.71,0,0,0-.36-1.16A1.25,1.25,0,0,0,59.42,4.71Z"/><path class="a" d="M53,8.12a1.14,1.14,0,0,0,.43-.44A1.24,1.24,0,0,0,53.55,7V6.8h-.42a6.35,6.35,0,0,0-1,.06,1,1,0,0,0-.54.23.58.58,0,0,0-.17.43.71.71,0,0,0,.24.54,1,1,0,0,0,.66.21A1.3,1.3,0,0,0,53,8.12Z"/><path class="a" d="M10.38,9.7a.68.68,0,1,0,.67.68A.67.67,0,0,0,10.38,9.7Z"/><path class="a" d="M25.81,6.74a1.35,1.35,0,0,0-.75.29.78.78,0,0,0-.22.58,1,1,0,0,0,.33.77,1.31,1.31,0,0,0,.91.3,1.44,1.44,0,0,0,.8-.22,1.62,1.62,0,0,0,.56-.6,1.86,1.86,0,0,0,.2-.87V6.65h-.37A9.25,9.25,0,0,0,25.81,6.74Z"/><path class="a" d="M3.88,9.7a.68.68,0,1,0,.67.68A.67.67,0,0,0,3.88,9.7Z"/><path d="M12.33,0H5.18a.63.63,0,1,0,0,1.25h6.39L10.51,6.5H4.39L3.19.5A.63.63,0,0,0,2.58,0h-2a.63.63,0,0,0,0,1.25H2.06l1.2,6a.63.63,0,0,0,.62.5H11a.62.62,0,0,0,.61-.5l1.3-6.5a.6.6,0,0,0-.13-.52A.6.6,0,0,0,12.33,0Z"/><path d="M10.38,8.45a1.93,1.93,0,1,0,1.92,1.93A1.94,1.94,0,0,0,10.38,8.45Zm0,2.6a.68.68,0,1,1,.67-.67A.67.67,0,0,1,10.38,11.05Z"/><path d="M3.88,8.45A1.93,1.93,0,1,0,5.8,10.38,1.93,1.93,0,0,0,3.88,8.45Zm0,2.6a.68.68,0,1,1,.67-.67A.67.67,0,0,1,3.88,11.05Z"/><path d="M22.14,7.71a.51.51,0,0,0-.35.12,3.4,3.4,0,0,1-.95.48,3.79,3.79,0,0,1-1.07.15,3,3,0,0,1-1.57-.39,2.43,2.43,0,0,1-1-1.14,4.45,4.45,0,0,1-.33-1.8,4.43,4.43,0,0,1,.33-1.81,2.45,2.45,0,0,1,1-1.13,3,3,0,0,1,1.57-.39A3.67,3.67,0,0,1,20.83,2a2.8,2.8,0,0,1,.92.48.55.55,0,0,0,.36.12.45.45,0,0,0,.28-.1.54.54,0,0,0,.16-.26.48.48,0,0,0,0-.31.6.6,0,0,0-.25-.3A3.55,3.55,0,0,0,21.13,1a4.92,4.92,0,0,0-3.08.1A3.35,3.35,0,0,0,16.78,2,3.9,3.9,0,0,0,16,3.33a5.36,5.36,0,0,0-.28,1.8,5.18,5.18,0,0,0,.49,2.31,3.52,3.52,0,0,0,1.38,1.5,4.16,4.16,0,0,0,2.17.53,4.83,4.83,0,0,0,1.42-.21,3.3,3.3,0,0,0,1.17-.63.53.53,0,0,0,.21-.27.55.55,0,0,0,0-.31.49.49,0,0,0-.15-.24A.46.46,0,0,0,22.14,7.71Z"/><path d="M27.24,6a10.27,10.27,0,0,0-2.06.16,1.92,1.92,0,0,0-1.09.53,1.49,1.49,0,0,0-.33,1,1.6,1.6,0,0,0,.27.91,1.86,1.86,0,0,0,.76.65,2.42,2.42,0,0,0,1.09.24,2.26,2.26,0,0,0,.88-.17,1.7,1.7,0,0,0,.65-.5,1.76,1.76,0,0,0,.26-.44v.52a.57.57,0,0,0,.13.42.49.49,0,0,0,.38.15.46.46,0,0,0,.38-.15.57.57,0,0,0,.14-.42V5.72a2.94,2.94,0,0,0-.26-1.31,1.56,1.56,0,0,0-.75-.75,2.88,2.88,0,0,0-1.29-.25,4.28,4.28,0,0,0-1,.12,4.4,4.4,0,0,0-1.05.37.41.41,0,0,0-.24.2.6.6,0,0,0-.06.27.48.48,0,0,0,.09.25.34.34,0,0,0,.21.14.53.53,0,0,0,.31,0,4.33,4.33,0,0,1,.87-.34,3.43,3.43,0,0,1,.82-.11,1.26,1.26,0,0,1,1,.32,1.53,1.53,0,0,1,.29,1V6Zm.4,1a1.86,1.86,0,0,1-.2.87,1.62,1.62,0,0,1-.56.6,1.44,1.44,0,0,1-.8.22,1.31,1.31,0,0,1-.91-.3,1,1,0,0,1-.33-.77A.78.78,0,0,1,25.06,7a1.35,1.35,0,0,1,.75-.29,9.25,9.25,0,0,1,1.46-.09h.37Z"/><path d="M30.87,9.45a.52.52,0,0,0,.4-.15.57.57,0,0,0,.14-.42V6.08a1.63,1.63,0,0,1,.42-1.19,2,2,0,0,1,1.22-.52h.22a.58.58,0,0,0,.37-.16.54.54,0,0,0,.11-.37.47.47,0,0,0-.14-.34.4.4,0,0,0-.31-.09A2.5,2.5,0,0,0,32,3.82a1.74,1.74,0,0,0-.6.82V4a.59.59,0,0,0-.14-.42.65.65,0,0,0-.78,0A.55.55,0,0,0,30.3,4V8.88a.52.52,0,0,0,.57.57Z"/><path d="M34.8,4.36h.77V7.31a2.76,2.76,0,0,0,.23,1.18,1.67,1.67,0,0,0,.71.73,2.48,2.48,0,0,0,1.18.25,2.39,2.39,0,0,0,.44,0l.38-.09a.31.31,0,0,0,.21-.19.73.73,0,0,0,.05-.3.47.47,0,0,0-.07-.31.25.25,0,0,0-.19-.08,1.11,1.11,0,0,0-.28,0,1.92,1.92,0,0,1-.38,0,1.09,1.09,0,0,1-.91-.34,1.48,1.48,0,0,1-.28-1V4.36h1.45a.51.51,0,0,0,.35-.11.41.41,0,0,0,.12-.31.39.39,0,0,0-.12-.31.51.51,0,0,0-.35-.11H36.66V2.21a.53.53,0,0,0-.14-.41.54.54,0,0,0-.4-.14.6.6,0,0,0-.41.14.56.56,0,0,0-.14.41V3.52H34.8a.49.49,0,0,0-.33.11.39.39,0,0,0-.12.31.41.41,0,0,0,.12.31A.49.49,0,0,0,34.8,4.36Z"/><path d="M40.6,9.46a.82.82,0,0,0,.63-.22.9.9,0,0,0,.21-.64V4.23l2,3.51a.81.81,0,0,0,.3.33.74.74,0,0,0,.44.12.71.71,0,0,0,.41-.11.93.93,0,0,0,.3-.34l2-3.52V8.6a.86.86,0,0,0,.22.64,1,1,0,0,0,1.25,0,.86.86,0,0,0,.22-.64V1.67A.87.87,0,0,0,48.31,1a.88.88,0,0,0-.62-.21,1,1,0,0,0-.57.13,1.13,1.13,0,0,0-.38.46L44.16,6.11,41.58,1.4A1.13,1.13,0,0,0,41.2.94a1,1,0,0,0-.57-.13A.93.93,0,0,0,40,1a.87.87,0,0,0-.23.65V8.6a.9.9,0,0,0,.21.64A.85.85,0,0,0,40.6,9.46Z"/><path d="M52.77,9.32a1.57,1.57,0,0,0,.59-.45,1.25,1.25,0,0,0,.22-.41v.09a1,1,0,0,0,.22.68.85.85,0,0,0,.63.23.81.81,0,0,0,.62-.23,1,1,0,0,0,.23-.68V5.88A3,3,0,0,0,55,4.46a1.8,1.8,0,0,0-.9-.84,3.74,3.74,0,0,0-1.53-.27,5.27,5.27,0,0,0-.91.09,5.33,5.33,0,0,0-1,.31.69.69,0,0,0-.4.29.72.72,0,0,0-.12.4.71.71,0,0,0,.1.39.56.56,0,0,0,.31.24A.76.76,0,0,0,51,5a4.16,4.16,0,0,1,1.52-.34,1.21,1.21,0,0,1,.83.23,1,1,0,0,1,.24.75v.2h-.43a9.58,9.58,0,0,0-2,.17A2,2,0,0,0,50,6.57a1.49,1.49,0,0,0-.33,1,1.73,1.73,0,0,0,.28,1,2,2,0,0,0,.8.67A2.66,2.66,0,0,0,52,9.48,1.91,1.91,0,0,0,52.77,9.32Zm-1.34-1.8a.58.58,0,0,1,.17-.43,1,1,0,0,1,.54-.23,6.35,6.35,0,0,1,1-.06h.42V7a1.24,1.24,0,0,1-.16.66,1.14,1.14,0,0,1-.43.44,1.3,1.3,0,0,1-.63.15,1,1,0,0,1-.66-.21A.71.71,0,0,1,51.43,7.52Z"/><path d="M61.72,10.9a2.88,2.88,0,0,0,.8-2.23V4.29a.94.94,0,0,0-.22-.68,1.06,1.06,0,0,0-1.32,0,.91.91,0,0,0-.24.68v.08a1.64,1.64,0,0,0-.61-.68,2.36,2.36,0,0,0-1.25-.34,2.7,2.7,0,0,0-1.08.21,2.36,2.36,0,0,0-.83.6,2.66,2.66,0,0,0-.52.92,3.51,3.51,0,0,0-.19,1.2,3.5,3.5,0,0,0,.32,1.54,2.4,2.4,0,0,0,.92,1,2.5,2.5,0,0,0,1.38.37,2.27,2.27,0,0,0,1.24-.34,1.67,1.67,0,0,0,.64-.71v.72A1.39,1.39,0,0,1,60.38,10a1.69,1.69,0,0,1-1.16.35,4.75,4.75,0,0,1-.77-.07,3.93,3.93,0,0,1-1-.31.5.5,0,0,0-.41,0,.56.56,0,0,0-.31.23.73.73,0,0,0-.14.38.62.62,0,0,0,.09.42.69.69,0,0,0,.39.3,3.81,3.81,0,0,0,1,.32,7.08,7.08,0,0,0,1.24.1A3.32,3.32,0,0,0,61.72,10.9ZM60.58,7.13a1.3,1.3,0,0,1-.47.54,1.35,1.35,0,0,1-1.67-.23,1.75,1.75,0,0,1-.36-1.16,1.93,1.93,0,0,1,.17-.84,1.26,1.26,0,0,1,.45-.54,1.29,1.29,0,0,1,.72-.19,1.25,1.25,0,0,1,1,.41,1.71,1.71,0,0,1,.36,1.16A2,2,0,0,1,60.58,7.13Z"/><path d="M64.72,3.39a.89.89,0,0,0-.66.24,1,1,0,0,0-.24.73V8.48a1,1,0,0,0,.24.72,1,1,0,0,0,1.34,0,1,1,0,0,0,.23-.72V4.36a1.06,1.06,0,0,0-.23-.73A.91.91,0,0,0,64.72,3.39Z"/><path d="M64.72.58A1.15,1.15,0,0,0,64,.81a.87.87,0,0,0-.26.67.88.88,0,0,0,.26.68,1.34,1.34,0,0,0,1.53,0,.85.85,0,0,0,.27-.68.85.85,0,0,0-.27-.67A1.16,1.16,0,0,0,64.72.58Z"/><path d="M68.9,5.17a1.19,1.19,0,0,1,.47-.32A1.54,1.54,0,0,1,70,4.73a1.56,1.56,0,0,1,.46.07,2,2,0,0,1,.48.18.57.57,0,0,0,.43.07.64.64,0,0,0,.32-.22.76.76,0,0,0,.15-.37.79.79,0,0,0-.07-.4.71.71,0,0,0-.32-.32,3.32,3.32,0,0,0-.83-.3,3.92,3.92,0,0,0-.8-.09,3.87,3.87,0,0,0-1.31.21,2.75,2.75,0,0,0-1,.61,2.44,2.44,0,0,0-.63,1,3.6,3.6,0,0,0-.21,1.27A3.29,3.29,0,0,0,67.05,8a2.64,2.64,0,0,0,1.1,1.07,3.52,3.52,0,0,0,1.67.37,3.71,3.71,0,0,0,.79-.08,3.33,3.33,0,0,0,.81-.3.61.61,0,0,0,.31-.3.8.8,0,0,0,.08-.4A.6.6,0,0,0,71.67,8a.59.59,0,0,0-.31-.23.55.55,0,0,0-.42.06,2,2,0,0,1-.48.2,1.94,1.94,0,0,1-.46.06,1.36,1.36,0,0,1-1.1-.47,1.85,1.85,0,0,1-.39-1.25,2.25,2.25,0,0,1,.11-.71A1.37,1.37,0,0,1,68.9,5.17Z"/></svg>