<svg xmlns="http://www.w3.org/2000/svg" viewBox="0 0 73.21 9.59"><defs><style>.a{fill:none;}</style></defs><path class="a" d="M16.5,2H15.07V4.35H16.5A1.27,1.27,0,0,0,17.44,4a1.18,1.18,0,0,0,.32-.87,1.15,1.15,0,0,0-.32-.85A1.31,1.31,0,0,0,16.5,2Z"/><polygon class="a" points="26.57 6.09 28.89 6.09 27.72 2.64 26.57 6.09"/><path class="a" d="M58.42,2H57V4.35h1.42A1.27,1.27,0,0,0,59.36,4a1.18,1.18,0,0,0,.32-.87,1.15,1.15,0,0,0-.32-.85A1.31,1.31,0,0,0,58.42,2Z"/><path d="M4.35,5.9H7.26a2.45,2.45,0,0,1-.85,1.24A2.4,2.4,0,0,1,5,7.57,2.6,2.6,0,0,1,3,6.84a2.83,2.83,0,0,1-.71-2A2.77,2.77,0,0,1,3,2.85a2.28,2.28,0,0,1,1.78-.73,2.34,2.34,0,0,1,1.12.25,1.64,1.64,0,0,1,.73.72H9.18A3.82,3.82,0,0,0,7.64.82,4.77,4.77,0,0,0,4.79,0,4.93,4.93,0,0,0,2.31.61a4.34,4.34,0,0,0-1.7,1.7A5,5,0,0,0,0,4.8,5,5,0,0,0,.61,7.29,4.34,4.34,0,0,0,2.32,9a4.93,4.93,0,0,0,2.48.61,4.82,4.82,0,0,0,2.12-.45,4.45,4.45,0,0,0,1.55-1.2,4.44,4.44,0,0,0,.87-1.59V4.21h-5Z"/><path d="M19.56,4.75a2.76,2.76,0,0,0,.53-1.68,3,3,0,0,0-.39-1.51A2.69,2.69,0,0,0,18.53.5a4.23,4.23,0,0,0-1.9-.39H12.78V9.53h2.29V6h.55l2,3.56h2.59L18,5.8A2.86,2.86,0,0,0,19.56,4.75ZM17.44,4a1.27,1.27,0,0,1-.94.31H15.07V2H16.5a1.31,1.31,0,0,1,.94.31,1.15,1.15,0,0,1,.32.85A1.18,1.18,0,0,1,17.44,4Z"/><path d="M26.41.11,23,9.53h2.4L26,7.86h3.52L30,9.53h2.43L29.06.11Zm.16,6,1.15-3.45,1.17,3.45Z"/><polygon points="35.44 9.53 37.74 9.53 37.74 5.72 40.61 5.72 40.61 3.93 37.74 3.93 37.74 1.95 41.58 1.95 41.58 0.11 35.44 0.11 35.44 9.53"/><polygon points="44.38 1.95 46.88 1.95 46.88 9.53 49.17 9.53 49.17 1.95 51.67 1.95 51.67 0.11 44.38 0.11 44.38 1.95"/><path d="M61.48,4.75A2.76,2.76,0,0,0,62,3.07a3.08,3.08,0,0,0-.38-1.51A2.72,2.72,0,0,0,60.45.5a4.23,4.23,0,0,0-1.9-.39H54.7V9.53H57V6h.55l2,3.56h2.59L59.92,5.8A2.86,2.86,0,0,0,61.48,4.75ZM59.36,4a1.27,1.27,0,0,1-.94.31H57V2h1.42a1.31,1.31,0,0,1,.94.31,1.15,1.15,0,0,1,.32.85A1.18,1.18,0,0,1,59.36,4Z"/><path d="M65.84,2.46s-1.08,2.71.25,4C67,4.39,73.21.22,73.21.22H63.92Z"/></svg>